 <svg
                width="35"
                height="36"
                className="w-8 h-8 fill-current mr-2 text-purple-600"
                viewBox="0 0 35 36"
                fill="none"
                xmlns="http://www.w3.org/2000/svg"
              >
                <path
                  d="M17.5447 35.0672C14.1692 35.0672 10.8694 34.0662 8.06271 32.1909C5.25602 30.3155 3.06848 27.65 1.77671 24.5314C0.484934 21.4127 0.146947 17.9811 0.805488 14.6704C1.46403 11.3597 3.08952 8.31862 5.47641 5.93173C7.86329 3.54484 10.9044 1.91935 14.2151 1.26081C17.5258 0.602269 20.9574 0.940256 24.076 2.23203C27.1947 3.5238 29.8602 5.71135 31.7356 8.51803C33.6109 11.3247 34.6119 14.6245 34.6119 18C34.6071 22.5251 32.8074 26.8634 29.6078 30.0631C26.4081 33.2628 22.0697 35.0624 17.5447 35.0672ZM17.5447 2.87919C14.5529 2.8786 11.6281 3.76529 9.14023 5.42713C6.65238 7.08896 4.71326 9.45128 3.56813 12.2153C2.423 14.9793 2.1233 18.0208 2.70694 20.9552C3.29058 23.8895 4.73135 26.5849 6.847 28.7003C8.96265 30.8158 11.6581 32.2563 14.5926 32.8396C17.527 33.423 20.5685 33.123 23.3324 31.9776C26.0963 30.8322 28.4584 28.8928 30.12 26.4048C31.7816 23.9168 32.668 20.9919 32.6671 18C32.6623 13.9907 31.0676 10.1469 28.2327 7.31167C25.3977 4.47647 21.5541 2.88136 17.5447 2.87618V2.87919Z"
                  fill="#4B4ACF"
                />
                <path
                  d="M22.2887 13.8938L17.6816 28.1483L17.4846 28.1829L12.7346 13.8938H22.2887Z"
                  fill="#4B4ACF"
                />
                <path
                  d="M15.8045 7.96455C14.4764 9.28967 13.2581 10.5215 12.0127 11.7324C11.8225 11.8921 11.5827 11.9809 11.3343 11.9835C10.0573 12.0076 8.77731 11.9956 7.27319 11.9956C7.57402 11.6842 7.75752 11.4947 7.94704 11.3187C8.50807 10.7938 9.18041 10.3501 9.61811 9.7379C11.1854 7.55242 13.3814 7.70283 15.8045 7.96455Z"
                  fill="#4B4ACF"
                />
                <path
                  d="M27.8134 11.9925C26.2115 11.9925 24.8849 11.9925 23.5568 11.9925C23.3891 11.9864 23.2292 11.9208 23.1055 11.8075C21.8707 10.5621 20.6478 9.30615 19.2595 7.88477C20.5937 7.88477 21.7112 7.88477 22.8288 7.89529C22.9952 7.92061 23.1496 7.99679 23.271 8.11339C24.7225 9.33774 26.1634 10.5786 27.8134 11.9925Z"
                  fill="#4B4ACF"
                />
                <path
                  d="M17.6153 9.23413L20.5168 11.9521H14.8899L17.6153 9.23413Z"
                  fill="#4B4ACF"
                />
              </svg>